<svg xmlns="http://www.w3.org/2000/svg" viewBox="0 0 64 64">
    <path fill="#cb4b16" d="M9.973 37.567v-4.405h44.055v4.405h-19.825v9.141q3.855.793 6.333 3.139 2.478 2.346 2.478 5.342 0 2.401-1.619 4.427-1.619 2.027-4.405 3.205-2.786 1.178-6.091 1.178-3.304 0-6.091-1.178-2.786-1.178-4.405-3.205-1.619-2.027-1.619-4.427 0-2.996 2.478-5.342 2.478-2.346 6.333-3.139v-9.141h-17.622zm1.101-6.608l3.304-19.825h1.101q0-9.075 4.075-10.771 3.062-1.278 7.159 1.938l.881-.881 4.207 4.207-3.106 3.106-4.207-4.207.661-.661q-2.93-2.225-4.758-1.476-1.3.551-2.004 2.808-.705 2.258-.705 5.936h31.94l3.304 19.825h-41.852z"/>
</svg>
