<svg xmlns="http://www.w3.org/2000/svg" viewBox="0 0 100 100">
    <g>
        <path d="M50 0c-21.905 0-40.493 14.104-47.253 33.713 6.7-4.082 19.066-10.815 27.858-10.655 11.67.212 21.578 1.233 24.75 20.616 6.86-16.664 6.984-34.251 6.604-42.231-3.826-.938-7.844-1.443-11.959-1.443z" fill="#ffe100"/>
        <path d="M78.191 8.713c-4.656 7.124-11.347 18.433-18.119 33.713-.946 2.853-1.676 6.025-1.887 9.184-.506 7.586 3.603 13.209 5.799 15.649l.111.139c6.954 6.605 17.653 8.239 29.828 6.521 3.878-7.105 6.077-15.253 6.077-23.918 0-17.159-8.638-32.283-21.809-41.287z" fill="#ffc819"/>
        <path d="M30.855 29.911c-10.489.174-22.732 5.68-29.661 9.267-.77 3.487-1.193 7.102-1.193 10.821 0 20.517 12.371 38.159 30.05 45.866.335-5.575 1.441-11.337 3.746-16.648 3.151-7.261 5.087-8.23 8.74-12.958 2.365-3.276 5.87-8.413 6.576-11.127.754-2.897.769-7.643.721-10.35-.379-5.723-2.738-11.643-12.597-14.179-1.998-.514-4.153-.731-6.382-.694z" fill="#ffaf32"/>
        <path d="M51.054 65.982c-5.069 16.854-4.208 27.637-2.358 33.99.438.011.863.028 1.304.028 16.703 0 31.486-8.199 40.566-20.782-6.751 2.127-17.62 4.176-26.859-.444-7.49-3.745-10.99-8.32-12.653-12.791z" fill="#ff964b"/>
    </g>
</svg>
