<svg xmlns="http://www.w3.org/2000/svg" viewBox="0 0 350 100">
    <g>
        <g>
            <path d="M50 0c-21.905 0-40.493 14.104-47.253 33.713 6.7-4.082 19.066-10.815 27.858-10.655 11.67.212 21.578 1.233 24.75 20.616 6.86-16.664 6.984-34.251 6.604-42.231-3.826-.938-7.844-1.443-11.959-1.443z" fill="#ffe100"/>
            <path d="M78.191 8.713c-4.656 7.124-11.347 18.433-18.119 33.713-.946 2.853-1.676 6.025-1.887 9.184-.506 7.586 3.603 13.209 5.799 15.649l.111.139c6.954 6.605 17.653 8.239 29.828 6.521 3.878-7.105 6.077-15.253 6.077-23.918 0-17.159-8.638-32.283-21.809-41.287z" fill="#ffc819"/>
            <path d="M30.855 29.911c-10.489.174-22.732 5.68-29.661 9.267-.77 3.487-1.193 7.102-1.193 10.821 0 20.517 12.371 38.159 30.05 45.866.335-5.575 1.441-11.337 3.746-16.648 3.151-7.261 5.087-8.23 8.74-12.958 2.365-3.276 5.87-8.413 6.576-11.127.754-2.897.769-7.643.721-10.35-.379-5.723-2.738-11.643-12.597-14.179-1.998-.514-4.153-.731-6.382-.694z" fill="#ffaf32"/>
            <path d="M51.054 65.982c-5.069 16.854-4.208 27.637-2.358 33.99.438.011.863.028 1.304.028 16.703 0 31.486-8.199 40.566-20.782-6.751 2.127-17.62 4.176-26.859-.444-7.49-3.745-10.99-8.32-12.653-12.791z" fill="#ff964b"/>
        </g>
        <g>
            <path d="M165.441 82.559h-12.317v-28.72h-30.809v28.72h-12.315v-65.709h12.315v28.265h30.809v-28.265h12.317z" fill="#ffaf32"/>
            <path d="M192.464 82.559h-12.268v-65.709h12.268z" fill="#ffaf32"/>
            <path d="M254.445 69.107c.484 0 .924.197 1.317.591l3.453 3.772c-2.666 3.09-5.9 5.498-9.702 7.225-3.802 1.727-8.384 2.591-13.746 2.591-4.697 0-8.953-.81-12.77-2.431-3.816-1.621-7.073-3.893-9.77-6.816-2.697-2.923-4.787-6.43-6.271-10.52s-2.226-8.589-2.226-13.496.795-9.406 2.385-13.496c1.59-4.09 3.824-7.604 6.702-10.542 2.878-2.938 6.324-5.217 10.338-6.838 4.014-1.621 8.445-2.431 13.291-2.431 4.787 0 8.915.742 12.384 2.226 3.469 1.484 6.551 3.498 9.247 6.042l-2.862 4.047c-.213.301-.455.551-.728.747-.273.197-.666.295-1.18.295-.394 0-.811-.144-1.251-.431-.44-.287-.963-.643-1.568-1.068-.606-.424-1.317-.879-2.136-1.363-.818-.484-1.788-.939-2.908-1.363-1.121-.424-2.423-.78-3.908-1.068-1.485-.287-3.196-.431-5.134-.431-3.485 0-6.675.598-9.567 1.794-2.893 1.196-5.384 2.9-7.475 5.112-2.09 2.212-3.718 4.908-4.884 8.089-1.166 3.181-1.749 6.741-1.749 10.68 0 4.061.583 7.681 1.749 10.861 1.166 3.18 2.756 5.869 4.771 8.066 2.015 2.197 4.4 3.87 7.157 5.022 2.757 1.151 5.726 1.726 8.906 1.726 1.94 0 3.682-.114 5.227-.341 1.545-.228 2.976-.583 4.295-1.068 1.318-.484 2.545-1.098 3.681-1.84 1.135-.742 2.279-1.629 3.431-2.659.516-.455 1.016-.682 1.5-.682z" fill="#ffc819"/>
            <path d="M323.657 82.559h-8.862v-29.627h-35.08v29.627h-8.862v-65.118h8.862v29.037h35.08v-29.037h8.862z" fill="#ffc819"/>
            <path d="M350 82.559h-8.814v-65.118h8.814z" fill="#ffc819"/>
        </g>
    </g>
</svg>
