<svg xmlns="http://www.w3.org/2000/svg" viewBox="0 0 64 64">
    <path fill="#268bd2" d="M6.4 62.72v-47.36h51.2v47.36q0 .538-.371.909t-.909.371h-48.64q-.538 0-.909-.371t-.371-.909zm0-49.92v-10.24q0-1.05.755-1.805.755-.755 1.805-.755 1.05 0 1.805.755.755.755.755 1.805h2.56q0-1.05.755-1.805.755-.755 1.805-.755 1.05 0 1.805.755.755.755.755 1.805h2.56q0-1.05.755-1.805.755-.755 1.805-.755 1.05 0 1.805.755.755.755.755 1.805h2.56q0-1.05.755-1.805.755-.755 1.805-.755 1.05 0 1.805.755.755.755.755 1.805h2.56q0-1.05.755-1.805.755-.755 1.805-.755 1.05 0 1.805.755.755.755.755 1.805h2.56q0-1.05.755-1.805.755-.755 1.805-.755 1.05 0 1.805.755.755.755.755 1.805h2.56q0-1.05.755-1.805.755-.755 1.805-.755 1.05 0 1.805.755.755.755.755 1.805v10.24h-51.2zm7.68 43.52h12.8v-2.56h-12.8v2.56zm0-5.12h35.84v-2.56h-35.84v2.56zm0-5.12h35.84v-2.56h-35.84v2.56zm0-5.12h35.84v-2.56h-35.84v2.56zm0-10.24h25.6v-2.56h-25.6v2.56zm2.56 5.12h33.28v-2.56h-33.28v2.56zm0-10.24h33.28v-2.56h-33.28v2.56z"/>
</svg>
